# xmcd
#
# Track frame offsets:
#	150
#	15996
#	30411
#	42570
#	55547
#	70872
#	86789
#	99437
#	113283
#	126534
#	144175
#	160056
#	177350
#	195794
#	211920
#	229237
#	245908
#	263455
#	275508
#	291026
#	308429
#
# Disc length: 4332 seconds
#
# Revision: 1
# Processed by: cddbd v1.5.2PL0 Copyright (c) Steve Scherf et al.
# Submitted via: audiograbber 1.83.01
#
DISCID=1210ea15
DTITLE=Various Artist - Hit Country 2019 [Disc 2]
DYEAR=2019
DGENRE=Country
TTITLE0=Keith Urban - Never Comin Down
TTITLE1=Kelsea Bellerini - Miss Me More
TTITLE2=The Wolfe Brothers - Storm Rollin' In
TTITLE3=Jess Moskaluke - Save Some Of That Whiskey
TTITLE4=Drew McAlister - Kissing A Girl Goodnight
TTITLE5=Tim McGraw - Neon Church
TTITLE6=Tori Forsyth - Redemption
TTITLE7=LANCO - Rival
TTITLE8=Felicity Urquhart - Chain Of Joy
TTITLE9=John Butler Trio - Miss Your Love
TTITLE10=Mitchell Tenpenny - Drunk Me
TTITLE11=Scotty McCreery - This Is It
TTITLE12=Fanny Lumsden - Real Men Don't Cry (War On Pride)
TTITLE13=Troy Cassar-Daley - Wouldn't Change A Thing
TTITLE14=Casey Barnes - Better Days
TTITLE15=Andrew Swift - Fire and Ice (feat. Catherine Britt)
TTITLE16=Jordan Brooker - Life In Your Days
TTITLE17=Dylan Scott - Nobody
TTITLE18=Sinead Burgess - Tennessee Bound
TTITLE19=The Viper Creek Band - Australian Girls
TTITLE20=Aleyce Simmonds - Rejected
EXTD=
EXTT0=
EXTT1=
EXTT2=
EXTT3=
EXTT4=
EXTT5=
EXTT6=
EXTT7=
EXTT8=
EXTT9=
EXTT10=
EXTT11=
EXTT12=
EXTT13=
EXTT14=
EXTT15=
EXTT16=
EXTT17=
EXTT18=
EXTT19=
EXTT20=
PLAYORDER=
